<?xml version="1.0" standalone="no"?>
<!DOCTYPE svg PUBLIC "-//W3C//DTD SVG 20010904//EN"
 "http://www.w3.org/TR/2001/REC-SVG-20010904/DTD/svg10.dtd">
<svg version="1.0" xmlns="http://www.w3.org/2000/svg"
 width="128.000000pt" height="128.000000pt" viewBox="0 0 128.000000 128.000000"
 preserveAspectRatio="xMidYMid meet">
<metadata>
Created by potrace 1.16, written by Peter Selinger 2001-2019
</metadata>
<g transform="translate(0.000000,128.000000) scale(0.100000,-0.100000)"
fill="#000000" stroke="none">
<path d="M0 640 l0 -640 640 0 640 0 0 640 0 640 -640 0 -640 0 0 -640z m720
475 c15 -8 37 -26 48 -40 11 -14 29 -25 40 -25 12 0 23 -4 26 -9 11 -17 101
-55 124 -52 26 3 38 -19 23 -47 -6 -12 -7 -31 -2 -49 6 -21 4 -39 -9 -66 -12
-24 -15 -39 -8 -43 6 -4 5 -10 -3 -15 -20 -12 22 -12 55 1 36 13 33 -5 -3 -20
-41 -17 -46 -38 -16 -66 14 -13 25 -26 25 -29 0 -17 -22 -45 -35 -45 -13 0
-15 -24 -15 -139 0 -114 -3 -143 -16 -155 -8 -9 -22 -16 -29 -16 -22 0 -33
-29 -27 -77 3 -33 0 -48 -13 -63 -17 -19 -32 -20 -250 -20 -269 0 -257 -4
-263 96 -4 52 -8 64 -21 64 -31 0 -41 22 -41 88 0 51 -3 63 -14 59 -8 -3 -22
1 -33 8 -21 16 -10 44 25 60 16 7 21 20 24 63 3 58 9 55 -62 37 -23 -5 -23 -5
-7 7 46 32 52 39 40 44 -17 7 -17 51 0 57 7 3 2 12 -15 26 -36 29 -35 50 2 64
31 12 42 47 15 47 -8 0 -15 7 -15 16 0 8 -4 12 -10 9 -5 -3 -10 -1 -10 5 0 6
6 10 13 9 6 -1 17 -1 24 0 13 1 35 59 27 72 -3 5 3 12 13 15 10 4 42 18 71 31
41 20 52 30 52 49 0 28 16 40 34 24 11 -8 23 -5 51 15 30 20 50 25 97 25 33 0
72 -7 88 -15z"/>
<path d="M564 1090 c-12 -5 -33 -24 -47 -42 -18 -24 -40 -37 -73 -46 -66 -18
-114 -68 -114 -118 0 -45 61 -144 89 -144 9 0 24 -18 34 -40 20 -44 64 -82
112 -97 21 -7 31 -17 33 -34 3 -22 0 -24 -40 -24 -38 0 -45 4 -61 32 -18 35
-55 47 -118 41 l-34 -3 -3 -142 -3 -143 31 0 c30 0 30 0 30 -57 0 -111 -21
-102 239 -100 l226 2 1 50 c1 108 0 105 39 105 l35 0 0 150 c0 165 -3 173 -58
154 -24 -8 -26 -14 -24 -51 l3 -41 -41 5 c-29 4 -45 1 -59 -11 -16 -15 -19
-15 -31 -1 -7 8 -19 15 -26 15 -8 0 -14 10 -14 23 0 17 11 26 45 41 44 18 105
78 105 103 0 8 10 18 23 24 34 15 87 99 87 136 0 56 -89 132 -155 133 -12 0
-28 13 -38 30 -10 17 -31 37 -47 45 -31 16 -112 19 -146 5z m221 -105 c36 -5
86 -23 68 -24 -8 -1 -5 -9 7 -21 22 -22 26 -51 10 -80 -10 -19 -4 -50 10 -50
4 0 15 15 24 33 10 20 16 25 16 14 0 -10 -11 -29 -24 -42 -13 -13 -26 -30 -29
-37 -3 -7 -6 2 -6 20 -1 17 -5 32 -10 32 -10 0 -8 27 4 53 5 13 1 27 -12 45
-22 29 -35 31 -174 17 -48 -5 -82 -3 -122 9 -30 9 -70 16 -88 16 -52 0 -27 11
48 20 64 8 209 6 278 -5z m-340 -50 c-28 -27 -30 -42 -11 -68 13 -16 14 -16
30 7 10 15 12 27 6 31 -18 11 -10 25 14 25 13 0 26 5 28 11 3 9 9 9 25 0 12
-6 33 -11 48 -11 14 0 24 -3 22 -7 -3 -5 12 -8 33 -8 21 0 36 3 34 6 -6 10 82
19 115 13 17 -4 33 -16 40 -30 16 -35 13 -43 -5 -14 l-15 25 8 -25 c4 -14 8
-54 8 -90 -1 -81 -27 -129 -87 -158 l-41 -21 -19 22 c-11 12 -17 17 -14 11 4
-7 -6 -14 -25 -16 -22 -4 -29 -1 -25 9 3 8 1 11 -4 8 -6 -3 -10 -13 -10 -21 0
-18 -14 -18 -48 0 -57 30 -102 108 -102 177 0 21 -4 27 -15 23 -16 -7 -21 -40
-6 -46 5 -1 3 -9 -5 -16 -12 -11 -14 -5 -14 45 -1 32 -1 70 -2 85 -1 33 17 58
43 58 16 0 15 -3 -6 -25z m226 -372 c0 -32 3 -52 6 -45 8 21 39 13 51 -13 7
-14 12 -46 12 -71 0 -55 -37 -100 -73 -90 -12 3 -28 6 -34 6 -10 0 -13 32 -13
128 0 71 3 132 7 135 3 4 15 7 25 7 15 0 18 -9 19 -57z m-201 17 c23 -23 26
-73 6 -111 -11 -22 -11 -30 5 -60 21 -39 24 -53 9 -44 -7 4 -7 -3 0 -19 6 -17
6 -35 0 -52 -7 -17 -7 -38 -1 -59 5 -19 6 -36 3 -39 -12 -13 -22 -5 -22 17 0
12 -5 29 -10 37 -7 11 -10 5 -10 -22 0 -21 -5 -38 -10 -38 -7 0 -10 35 -10 98
2 93 -4 132 -19 132 -4 0 -5 -16 -3 -35 4 -33 2 -35 -24 -35 l-29 0 3 125 3
125 45 0 c31 0 50 -6 64 -20z m134 -92 c12 -49 3 -68 -34 -68 -18 0 -29 -4
-25 -10 3 -5 17 -10 31 -10 20 0 24 -5 24 -27 -1 -16 0 -61 3 -101 3 -67 -3
-96 -17 -73 -4 5 -7 44 -8 86 0 42 -5 71 -9 64 -6 -10 -13 -10 -33 -1 -34 15
-51 77 -36 133 19 69 87 73 104 7z m236 32 c13 -13 20 -33 20 -60 0 -38 -2
-40 -30 -40 -16 0 -30 -4 -30 -10 0 -5 14 -10 31 -10 24 0 30 -3 25 -16 -3 -9
-6 -20 -6 -25 0 -6 -5 -7 -12 -3 -7 5 -8 3 -4 -5 10 -16 13 -152 4 -157 -16
-10 -29 42 -26 100 3 54 1 62 -13 59 -26 -7 -49 36 -49 90 0 38 5 53 25 72 29
30 39 31 65 5z"/>
</g>
</svg>
